<svg width="200" height="150" viewBox="0 0 200 150" fill="none" xmlns="http://www.w3.org/2000/svg">
<path d="M174.976 122.876C171.551 126.701 90.7269 124.919 77.2442 125.086C42.8836 103.941 40.1016 71.1087 47.2115 53.0057C50.4216 44.8332 59.5289 36.1379 70.3958 34.3087C83.7358 32.0516 95.4825 41.4834 100.809 45.7835C117.264 59.0401 117.145 72.8431 126.324 73.6032C136.406 74.4349 139.878 56.5693 154.336 55.6427C163.276 55.0726 169.649 61.3444 170.434 62.1284C177.9 69.7071 178.709 82.5123 173.739 89.9483C168.864 97.2418 159.305 98.0734 159.662 100.877C159.971 103.537 170.006 101.827 174.762 107.885C177.924 111.995 178.233 119.265 174.976 122.876Z" fill="url(#paint0_linear)"/>
<path opacity="0.5" d="M141.423 72.8194L125.586 67.6641L125.8 82.2035L141.637 87.3589L141.423 72.8194Z" fill="#FEEFF0"/>
<path d="M173.358 118.36L171.979 25.0885C171.979 24.8509 171.813 24.5896 171.622 24.5184L134.907 12.6159C134.717 12.5447 134.551 12.6872 134.551 12.9485L134.836 33.166L159.495 41.3624C159.685 41.4337 159.828 41.6711 159.828 41.9087L160.969 118.716L173.049 122.684C173.239 122.755 173.406 122.612 173.406 122.351L173.358 118.36Z" fill="url(#paint1_linear)"/>
<path d="M134.337 52.0775V52.2913L134.361 52.3151C134.408 52.3864 134.408 52.5051 134.361 52.5528L133.909 53.004C134.004 53.1465 134.123 53.2416 134.266 53.2891C134.551 53.3842 134.765 53.1704 134.765 52.8378C134.789 52.5051 134.598 52.1964 134.337 52.0775ZM134.218 52.03C133.98 51.9826 133.79 52.1964 133.79 52.5051C133.79 52.5528 133.79 52.6002 133.814 52.6715L134.194 52.2677L134.218 52.2438V52.03Z" fill="#75E0E6"/>
<path d="M134.123 42.5764C134.051 42.5526 134.004 42.6 134.004 42.6951L134.028 43.9306C134.028 44.0257 134.099 44.0969 134.17 44.1205C134.242 44.1444 134.289 44.0969 134.289 44.0018L134.265 42.7664C134.265 42.6951 134.218 42.6 134.123 42.5764Z" fill="#75E0E6"/>
<path d="M134.408 61.2013C134.337 61.1777 134.289 61.2251 134.289 61.3202L134.313 62.5554C134.313 62.6506 134.384 62.7218 134.456 62.7457C134.527 62.7693 134.574 62.7218 134.574 62.6267L134.551 61.3915C134.551 61.3202 134.479 61.2251 134.408 61.2013Z" fill="#75E0E6"/>
<path d="M139.877 47.4219C139.853 47.4219 139.853 47.4219 139.829 47.4219L139.14 48.0633C139.116 48.0871 139.116 48.1346 139.14 48.1822C139.164 48.2059 139.164 48.2059 139.187 48.2297C139.211 48.2297 139.211 48.2297 139.235 48.2297L139.925 47.5882C139.949 47.5644 139.949 47.517 139.925 47.4693C139.901 47.4457 139.901 47.4219 139.877 47.4219Z" fill="#75E0E6"/>
<path d="M129.391 57.1172C129.367 57.1172 129.367 57.1172 129.343 57.1172L128.654 57.7586C128.63 57.7825 128.63 57.8299 128.654 57.8773C128.677 57.9012 128.677 57.9012 128.701 57.925C128.725 57.925 128.725 57.925 128.749 57.925L129.438 57.2836C129.462 57.2597 129.462 57.2123 129.438 57.1646C129.414 57.141 129.391 57.1172 129.391 57.1172Z" fill="#75E0E6"/>
<path d="M139.354 60.3438C139.331 60.3438 139.331 60.3438 139.307 60.3438C139.283 60.3674 139.283 60.415 139.307 60.4625L140.02 61.5553C140.044 61.579 140.044 61.579 140.068 61.6028C140.092 61.6028 140.092 61.6028 140.115 61.6028C140.139 61.579 140.139 61.5315 140.115 61.4841L139.402 60.3912C139.402 60.3674 139.378 60.3674 139.354 60.3438Z" fill="#75E0E6"/>
<path d="M128.486 43.7148C128.463 43.7148 128.463 43.7148 128.439 43.7148C128.415 43.7387 128.415 43.7861 128.439 43.8338L129.152 44.9265C129.176 44.9503 129.176 44.9503 129.2 44.9741C129.223 44.9741 129.223 44.9741 129.247 44.9741C129.271 44.9503 129.271 44.9029 129.247 44.8552L128.534 43.7625C128.51 43.7387 128.486 43.7148 128.486 43.7148Z" fill="#75E0E6"/>
<path d="M142.327 55.1198L141.328 54.7873C141.257 54.7635 141.209 54.8112 141.209 54.906C141.209 55.0011 141.28 55.0962 141.352 55.1198L142.35 55.4526C142.422 55.4762 142.469 55.4288 142.469 55.3337C142.469 55.2388 142.398 55.1437 142.327 55.1198Z" fill="#75E0E6"/>
<path d="M127.179 50.2249L126.275 49.9398C126.204 49.916 126.156 49.9636 126.156 50.0349C126.156 50.1062 126.204 50.201 126.275 50.2249L127.179 50.51C127.25 50.5338 127.298 50.4861 127.298 50.4149C127.298 50.32 127.226 50.2249 127.179 50.2249Z" fill="#75E0E6"/>
<path d="M134.17 45.5703C134.122 45.5703 134.099 45.5941 134.099 45.618L134.194 52.0085V52.2223C134.217 52.2223 134.241 52.2223 134.265 52.2223C134.289 52.2223 134.313 52.2462 134.336 52.27V52.0562L134.241 45.6654C134.241 45.618 134.217 45.5703 134.17 45.5703Z" fill="#75E0E6"/>
<path d="M134.265 52.2461C134.242 52.2461 134.218 52.2461 134.194 52.2461C134.194 52.2461 134.17 52.2461 134.17 52.2699L133.79 52.6737L130.508 55.9998C130.461 56.0473 130.461 56.1424 130.508 56.2373C130.532 56.2849 130.556 56.3085 130.603 56.3085C130.627 56.3085 130.675 56.3085 130.699 56.2849L133.933 53.0062L134.384 52.555C134.432 52.5073 134.432 52.4125 134.384 52.3174L134.361 52.2935C134.313 52.2699 134.289 52.2461 134.265 52.2461Z" fill="#75E0E6"/>
<path d="M158.258 110.309L126.062 99.8555L126.181 108.028V107.719L158.377 118.172L158.258 110.309Z" fill="url(#paint2_linear)"/>
<path d="M152.338 47.5391L146.084 45.4961L146.108 47.2304L152.362 49.2735L152.338 47.5391Z" fill="#75E0E6"/>
<path d="M157.52 59.9425L151.885 58.1133L151.98 63.7675L157.615 65.5967L157.52 59.9425Z" fill="url(#paint3_linear)"/>
<path d="M132.221 72.7017C129.938 71.9651 128.131 73.6282 128.155 76.4552C128.202 79.2586 130.081 82.1571 132.363 82.8934C134.646 83.6299 136.453 81.9669 136.43 79.1399C136.406 76.3365 134.504 73.4618 132.221 72.7017Z" fill="#B5CDFB"/>
<path d="M98.858 109.477C97.2411 110.38 95.3387 110.665 93.5317 112.162C92.747 112.827 91.9621 113.73 91.2487 115.036C91.2487 115.036 89.394 117.436 86.8021 120.596C86.8021 120.596 86.8021 120.596 86.8021 120.619C82.2127 126.25 75.3884 134.28 72.9152 135.539C71.1793 136.418 67.0657 135.183 63.0707 133.543C58.1724 131.548 53.4165 128.934 53.4165 128.934C50.8959 127.865 49.2791 126.82 49.2552 125.323C49.2313 123.969 50.5631 122.282 53.7732 119.883C58.3864 116.486 63.4751 112.732 67.5412 109.762C67.5651 109.762 67.5651 109.738 67.5651 109.738C71.1557 107.149 73.9378 105.13 74.9365 104.512C77.4332 102.944 79.9538 98.9288 82.4267 96.3631C82.9976 95.7691 83.5445 95.2702 84.1151 94.8664C84.8046 94.3913 85.4944 94.0824 86.1839 94.0586C86.2314 94.0586 86.2791 94.0586 86.3266 94.0586C86.7784 94.0824 87.3253 94.3198 87.9673 94.6764C87.9673 94.6764 87.9673 94.6764 87.9911 94.6764C88.4666 94.9615 88.966 95.3179 89.4892 95.7455C89.4892 95.7455 89.513 95.7691 89.5844 95.8168C90.9634 96.9333 92.4853 98.5012 93.912 100.164C93.9358 100.188 93.9597 100.212 93.9833 100.236C95.1011 101.542 96.1472 102.92 97.0271 104.203C97.1221 104.346 97.1934 104.441 97.2173 104.488C97.6453 105.153 98.0497 105.795 98.3587 106.365C99.1672 107.98 99.4525 109.145 98.858 109.477Z" fill="url(#paint4_linear)"/>
<path d="M57.53 40.8164H27.2119V42.6933H57.53V40.8164Z" fill="url(#paint5_linear)"/>
<path d="M133.718 93.8935L125.942 91.3516L126.038 99.2152L133.837 101.757L133.718 93.8935Z" fill="url(#paint6_linear)"/>
<path d="M57.53 44.3359H27.2119V46.2126H57.53V44.3359Z" fill="url(#paint7_linear)"/>
<path d="M24.501 40.8164H21.0293V44.5699H24.501V40.8164Z" fill="url(#paint8_linear)"/>
<path d="M40.2439 62.1523H26.1191V63.4352H40.2439V62.1523Z" fill="url(#paint9_linear)"/>
<path d="M52.7512 69.2812H41.0996V78.7128H52.7512V69.2812Z" fill="url(#paint10_linear)"/>
<path d="M104.28 26.1825H89.4898C89.3471 26.1825 89.252 26.0637 89.252 25.9211V17.5348C89.252 17.3922 89.3708 17.2734 89.4898 17.2734H110.439C110.582 17.2734 110.677 17.3922 110.677 17.5348V25.9449C110.677 26.0874 110.558 26.2062 110.439 26.2062H107.348" fill="url(#paint11_linear)"/>
<path opacity="0.36" d="M179.088 128.672H171.17V130.81H179.088V128.672Z" fill="url(#paint12_linear)"/>
<path d="M161.231 134.518L159.852 41.7214C159.852 41.4837 159.686 41.2225 159.495 41.175L131.555 32.0996L122.781 29.2488C122.59 29.1775 122.424 29.32 122.424 29.5815L123.256 85.4349L123.328 90.709L123.851 126.416C123.851 126.654 124.017 126.915 124.207 126.986L160.922 138.913C161.112 138.984 161.279 138.841 161.279 138.58L161.231 134.518ZM157.617 65.5976L157.688 71.2518L152.052 69.4224L146.417 67.5932L146.346 61.9389L146.274 56.2847L151.91 58.1139L157.546 59.9433L157.617 65.5976ZM157.498 58.0903L146.227 54.4316L146.203 52.6973L157.474 56.356L157.498 58.0903ZM146.179 50.8443L146.155 49.1099L149.199 50.1077L149.223 51.8421L146.179 50.8443ZM152.338 47.542L152.362 49.2763L146.108 47.2569L146.084 45.5226L152.338 47.542ZM141.828 36.875C141.994 36.9224 142.137 37.1362 142.137 37.3262C142.137 37.5164 142.018 37.6351 141.851 37.5877C141.685 37.54 141.542 37.3262 141.542 37.1362C141.542 36.9462 141.661 36.8273 141.828 36.875ZM140.496 36.4473C140.662 36.4948 140.805 36.7086 140.805 36.8986C140.805 37.1124 140.686 37.2313 140.52 37.16C140.353 37.1124 140.21 36.8986 140.21 36.7086C140.187 36.5186 140.33 36.3997 140.496 36.4473ZM134.123 41.2938C139.212 42.9568 143.421 49.395 143.516 55.6433C143.611 61.9151 139.545 65.6688 134.456 64.0058C129.367 62.3427 125.158 55.9045 125.063 49.6563C124.968 43.4083 129.034 39.6545 134.123 41.2938ZM130.39 118.648L129.201 118.267C128.963 118.196 128.773 117.887 128.749 117.602L128.725 116.153C128.725 115.868 128.916 115.678 129.153 115.749L130.342 116.129C130.58 116.201 130.77 116.509 130.794 116.795L130.818 118.244C130.818 118.529 130.628 118.719 130.39 118.648ZM136.691 120.691L135.502 120.311C135.264 120.239 135.074 119.93 135.05 119.645L135.027 118.196C135.027 117.911 135.217 117.721 135.455 117.792L136.644 118.173C136.882 118.244 137.072 118.552 137.096 118.838L137.119 120.287C137.143 120.596 136.929 120.762 136.691 120.691ZM143.016 122.734L141.828 122.354C141.59 122.282 141.4 121.974 141.376 121.689L141.352 120.239C141.352 119.954 141.542 119.764 141.78 119.836L142.969 120.216C143.207 120.287 143.397 120.596 143.421 120.881L143.444 122.33C143.444 122.639 143.254 122.805 143.016 122.734ZM149.318 124.777L148.129 124.397C147.891 124.326 147.701 124.017 147.677 123.732L147.653 122.282C147.653 121.997 147.844 121.807 148.081 121.879L149.27 122.259C149.508 122.33 149.698 122.639 149.722 122.924L149.746 124.373C149.746 124.682 149.556 124.872 149.318 124.777ZM155.643 126.844L154.454 126.464C154.216 126.393 154.026 126.084 154.002 125.798L153.979 124.349C153.979 124.064 154.169 123.874 154.407 123.945L155.596 124.326C155.833 124.397 156.024 124.706 156.024 124.991L156.047 126.44C156.071 126.725 155.881 126.915 155.643 126.844ZM158.259 109.667L158.853 109.857V110.499L158.259 110.309L158.378 118.173L158.972 118.362V119.004L158.378 118.814L158.402 119.764C158.402 120.002 158.259 120.144 158.068 120.073L126.538 109.834C126.348 109.762 126.181 109.525 126.181 109.287L126.038 99.8318L125.254 99.5704V98.9289L126.038 99.1904L125.92 91.3268L125.135 91.0653V90.4239L125.92 90.6854L125.872 87.7869L125.8 82.8215L125.705 82.7979L125.016 82.5841V81.9426L125.8 82.2039L125.586 67.6644L124.802 67.4032V66.7617L125.586 67.023L125.563 65.9539C125.563 65.7163 125.706 65.5737 125.896 65.645L157.426 75.8844C157.617 75.9557 157.783 76.1933 157.783 76.431L157.807 77.5L158.402 77.69V78.3314L157.807 78.1415L158.021 92.6809L159.472 93.156V93.7974L158.021 93.3224L158.259 109.667Z" fill="url(#paint13_linear)"/>
<path fill-rule="evenodd" clip-rule="evenodd" d="M50.4918 31.1016H27.2122V32.9784H50.4918V31.1016ZM134.123 41.626C129.177 40.0106 125.23 43.6455 125.325 49.7511C125.42 55.8568 129.486 62.1051 134.456 63.6966C139.402 65.3122 143.349 61.6774 143.254 55.5717C143.159 49.4899 139.069 43.2417 134.123 41.626ZM125.063 49.656C124.968 43.408 129.034 39.6543 134.123 41.2935C139.212 42.9566 143.421 49.3948 143.516 55.643C143.611 61.8912 139.545 65.6686 134.456 64.0055C129.367 62.3663 125.158 55.9281 125.063 49.656ZM121.258 92.6087C121.259 92.6154 121.261 92.622 121.262 92.6287C121.264 92.6372 121.266 92.6456 121.267 92.6541C121.288 92.6488 121.309 92.6429 121.33 92.6326C121.615 92.5375 121.829 92.4188 121.948 92.2762C123.066 91.017 126.49 90.8031 126.181 92.7751C126.109 93.1789 125.967 93.5827 125.753 93.9393C124.897 95.3647 122.994 96.5286 120.926 97.1226C119.78 97.4586 118.393 98.2171 116.916 99.0245C115.051 100.044 113.044 101.141 111.2 101.565C109.654 101.922 107.419 101.898 105.303 101.423L105.302 101.422L105.278 101.423C104.47 101.423 103.638 101.47 102.782 101.565C101.759 101.66 100.713 101.874 99.7143 102.207C98.7392 102.539 97.8596 103.252 97.0272 104.202C97.0182 104.211 97.0125 104.221 97.0077 104.228C96.9999 104.241 96.9944 104.25 96.9797 104.25C96.529 102.667 91.83 97.9836 89.5369 95.8398L89.5372 95.8395C89.9888 95.4357 90.4407 95.032 90.8923 94.6043C91.7722 93.7967 92.6044 92.9651 93.3652 92.1337C93.6983 91.7773 94.0072 91.3971 94.2926 91.017C95.3865 89.5679 96.2663 87.9287 96.7895 86.8596C97.1699 86.1231 97.7644 85.5291 98.5016 85.1489C99.4904 84.6603 100.45 83.5415 101.463 82.3595C102.667 80.9552 103.947 79.4617 105.445 78.8296C106.206 78.7584 107.228 78.8532 108.346 79.0196C108.501 79.0435 108.566 79.1324 108.631 79.2215C108.697 79.3107 108.762 79.3998 108.917 79.4234C109.119 79.4573 109.407 79.4376 109.7 79.4179C110.025 79.3959 110.356 79.3735 110.581 79.4234C112.293 79.7798 114.1 80.2312 115.599 80.635L115.615 80.6396C115.983 80.5266 116.394 80.3994 116.836 80.2629L116.836 80.2626C119.577 79.4145 123.465 78.2111 125.253 77.9267C126.11 77.7906 126.923 77.2399 127.662 76.7399C128.726 76.0191 129.634 75.4038 130.294 76.2875C131.412 77.7842 127.94 80.7778 125.895 80.3025C124.944 81.2767 123.969 81.7043 122.709 81.9181C122.404 82.1938 122.072 82.5156 121.719 82.8589C121.356 83.2111 120.97 83.5858 120.566 83.9552C121.242 86.0184 121.245 88.7936 121.248 91.1008C121.248 91.6332 121.249 92.1408 121.258 92.6087ZM117.715 86.812C117.715 86.812 118.119 90.3281 118.547 92.9413C117.936 92.9408 117.302 92.917 116.645 92.87H116.621H116.597C116.618 92.5691 116.636 92.2703 116.655 91.9753L116.655 91.9728V91.9721V91.9719C116.7 91.2443 116.744 90.5424 116.811 89.9005C117.002 87.881 117.715 86.812 117.715 86.812ZM27.2122 34.6179H50.4918V36.4948H27.2122V34.6179ZM37.7707 69.2796H26.119V90.0196H37.7707V69.2796ZM15.751 115.084H32.8717V124.515H15.751V115.084ZM78.4492 48.3729H86.7718V42.8138H78.4492V48.3729ZM76.3316 48.3729H68.009V42.8138H76.3316V48.3729ZM68.0206 41.7507H86.7821V40.6578H68.0206V41.7507ZM86.7718 52.5092H78.4492V51.4165H86.7718V52.5092ZM68.009 52.5092H76.3316V51.4165H68.009V52.5092ZM86.7831 61.2104H68.0216V55.651H86.7831V61.2104ZM68.0216 54.5879H86.7831V53.4953H68.0216V54.5879ZM86.7718 50.6133H78.4492V50.0669H86.7718V50.6133ZM68.009 50.6133H76.3316V50.0669H68.009V50.6133ZM76.3316 39.7657H68.009V39.2193H76.3316V39.7657Z" fill="url(#paint14_linear)"/>
<path fill-rule="evenodd" clip-rule="evenodd" d="M15.9531 96.1836H33.074V113.289H15.9531V96.1836ZM16.3098 96.5399V112.933H32.7173V96.5399H16.3098Z" fill="url(#paint15_linear)"/>
<path fill-rule="evenodd" clip-rule="evenodd" d="M17.9395 54.1328H60.6465V54.4892H17.9395V54.1328Z" fill="#75E0E6"/>
<path d="M14.3955 47.4V23.5239C14.3955 21.5758 15.9649 20.0078 17.9148 20.0078H60.6454C62.5953 20.0078 64.1647 21.5758 64.1647 23.5239V47.4" stroke="url(#paint16_linear)" stroke-width="0.09375" stroke-miterlimit="10" stroke-linecap="round"/>
<path opacity="0.36" d="M167.081 126.559L165.725 33.2877C165.725 33.0503 165.559 32.7888 165.369 32.7413L128.63 20.8152C128.44 20.7439 128.273 20.8864 128.273 21.1477L128.416 31.1021L159.733 41.6028L161.112 128.412C161.112 128.65 166.772 130.93 166.772 130.93C166.962 131.002 167.128 130.859 167.128 130.598L167.081 126.559Z" fill="url(#paint17_linear)"/>
<path d="M134.431 62.7447C134.36 62.7208 134.312 62.6257 134.289 62.5545L134.265 61.319C134.265 61.2241 134.312 61.1765 134.384 61.2003C134.455 61.2241 134.526 61.319 134.526 61.3903L134.55 62.6257C134.55 62.7208 134.503 62.7683 134.431 62.7447ZM128.701 57.9219C128.677 57.9219 128.677 57.898 128.653 57.8744C128.629 57.8268 128.629 57.7793 128.653 57.7555L129.343 57.114C129.366 57.114 129.366 57.0904 129.39 57.114C129.414 57.114 129.414 57.1379 129.438 57.1617C129.462 57.2091 129.462 57.2566 129.438 57.2804L128.748 57.9219C128.724 57.9219 128.701 57.9219 128.701 57.9219ZM140.091 61.6041C140.067 61.6041 140.067 61.5805 140.043 61.5567L139.33 60.4638C139.306 60.4163 139.306 60.3689 139.33 60.3451C139.354 60.3451 139.354 60.3212 139.377 60.3451C139.401 60.3451 139.401 60.3689 139.425 60.3925L140.138 61.4854C140.162 61.5328 140.162 61.5805 140.138 61.6041C140.115 61.6041 140.091 61.6279 140.091 61.6041ZM126.228 50.2008C126.156 50.1769 126.109 50.0818 126.085 49.987C126.085 49.8919 126.132 49.8444 126.204 49.868L127.203 50.2008C127.274 50.2244 127.322 50.3195 127.345 50.3907C127.345 50.4859 127.298 50.5333 127.226 50.5095L126.228 50.2008ZM141.351 55.1185C141.28 55.0946 141.232 54.9998 141.208 54.9046C141.208 54.8095 141.256 54.7621 141.327 54.7859L142.326 55.1185C142.397 55.1423 142.445 55.2372 142.469 55.3084C142.469 55.4035 142.421 55.451 142.35 55.4274L141.351 55.1185ZM135.668 53.7405C135.525 53.693 135.43 53.5267 135.406 53.3605V52.7191C135.406 52.5527 135.501 52.4576 135.644 52.5053L138.236 53.3367C138.379 53.3841 138.474 53.5505 138.498 53.7169V54.3583C138.498 54.5245 138.402 54.6196 138.26 54.5721L135.668 53.7405ZM129.2 44.9742C129.176 44.9742 129.176 44.9503 129.152 44.9265L128.439 43.8338C128.415 43.7862 128.415 43.7387 128.439 43.7149C128.463 43.7149 128.463 43.6913 128.487 43.7149C128.51 43.7149 128.51 43.7387 128.534 43.7626L129.248 44.8552C129.271 44.9029 129.271 44.9503 129.248 44.9742C129.224 44.9742 129.224 44.9742 129.2 44.9742ZM134.217 52.03L134.122 45.6392C134.122 45.5918 134.146 45.5679 134.194 45.5918C134.241 45.5918 134.265 45.6392 134.265 45.6869L134.36 52.0776C134.598 52.1964 134.812 52.5289 134.812 52.8378C134.812 53.1703 134.598 53.3841 134.312 53.2893C134.17 53.2416 134.051 53.1467 133.956 53.0042L130.722 56.2826C130.698 56.3062 130.65 56.3062 130.627 56.3062C130.603 56.3062 130.555 56.2826 130.532 56.235C130.484 56.1637 130.484 56.045 130.532 55.9975L133.813 52.6714C133.813 52.624 133.789 52.5765 133.789 52.5053C133.766 52.1725 133.956 51.9825 134.217 52.03ZM139.187 48.2052C139.163 48.2052 139.163 48.1814 139.14 48.1575C139.116 48.1101 139.116 48.0626 139.14 48.0388L139.829 47.3974C139.853 47.3974 139.853 47.3735 139.877 47.3974C139.9 47.3974 139.9 47.4212 139.924 47.4448C139.948 47.4925 139.948 47.5399 139.924 47.5637L139.235 48.2052C139.211 48.2288 139.211 48.2288 139.187 48.2052ZM134.146 44.1189C134.075 44.0951 134.027 44 134.003 43.9287L133.98 42.6935C133.98 42.5984 134.027 42.551 134.098 42.5746C134.17 42.5984 134.241 42.6935 134.241 42.7648L134.265 44C134.289 44.0951 134.217 44.1425 134.146 44.1189ZM134.122 41.6242C129.176 40.0088 125.229 43.6675 125.324 49.7493C125.419 55.855 129.509 62.1032 134.455 63.6948C139.401 65.3104 143.348 61.6518 143.253 55.5699C143.158 49.4642 139.068 43.2398 134.122 41.6242Z" fill="url(#paint18_linear)"/>
<path d="M138.26 53.336L135.669 52.5044C135.526 52.4569 135.431 52.552 135.431 52.7182V53.3596C135.431 53.526 135.55 53.6924 135.692 53.7398L138.284 54.5715C138.427 54.6189 138.522 54.5238 138.522 54.3574V53.716C138.498 53.5498 138.403 53.3835 138.26 53.336Z" fill="#FBD8CB"/>
<path d="M126.062 99.8543L126.205 109.31C126.205 109.547 126.371 109.785 126.561 109.856L158.092 120.095C158.282 120.167 158.425 120.024 158.425 119.787L158.401 118.836L126.181 108.383V108.074L126.062 99.8543ZM157.426 75.8594L125.895 65.62C125.705 65.5487 125.562 65.6912 125.562 65.9287L125.586 66.9977L157.807 77.4509L157.783 76.3819C157.759 76.1681 157.617 75.9306 157.426 75.8594Z" fill="url(#paint19_linear)"/>
<path d="M140.472 36.448C140.305 36.4005 140.187 36.5192 140.187 36.7094C140.187 36.8994 140.329 37.1132 140.496 37.1607C140.662 37.2083 140.781 37.0894 140.781 36.8994C140.781 36.7094 140.638 36.4956 140.472 36.448Z" fill="#FAE9B8"/>
<path d="M141.826 36.8738C141.66 36.8261 141.541 36.9451 141.541 37.1351C141.541 37.325 141.684 37.5389 141.85 37.5865C142.017 37.634 142.136 37.5152 142.136 37.325C142.136 37.1351 141.993 36.9451 141.826 36.8738Z" fill="#FAE9B8"/>
<path d="M158.02 93.2958L142.184 88.1641L142.421 104.533L158.258 109.664L158.02 93.2958Z" fill="#B5CDFB"/>
<path d="M141.779 96.5056L134.241 94.0586L134.36 101.922L141.898 104.369L141.779 96.5056Z" fill="url(#paint20_linear)"/>
<path d="M133.599 85.3859L125.8 82.8438L125.919 90.7076L133.718 93.2495L133.599 85.3859Z" fill="#B5CDFB"/>
<path d="M130.341 116.104L129.153 115.723C128.915 115.652 128.725 115.819 128.725 116.127L128.748 117.576C128.748 117.862 128.962 118.17 129.2 118.242L130.389 118.622C130.627 118.693 130.817 118.527 130.817 118.218L130.793 116.769C130.793 116.484 130.603 116.175 130.341 116.104Z" fill="#1F818C"/>
<path d="M136.667 118.147L135.478 117.766C135.24 117.695 135.05 117.861 135.05 118.17L135.074 119.619C135.074 119.904 135.288 120.213 135.525 120.285L136.714 120.665C136.952 120.736 137.142 120.57 137.142 120.261L137.119 118.812C137.095 118.527 136.905 118.242 136.667 118.147Z" fill="url(#paint21_linear)"/>
<path d="M142.968 120.217L141.78 119.837C141.542 119.765 141.352 119.932 141.352 120.24L141.375 121.69C141.375 121.975 141.589 122.284 141.827 122.355L143.016 122.735C143.254 122.806 143.444 122.64 143.444 122.331L143.42 120.882C143.42 120.597 143.206 120.288 142.968 120.217Z" fill="url(#paint22_linear)"/>
<path d="M149.294 122.256L148.105 121.876C147.867 121.804 147.677 121.971 147.677 122.28L147.701 123.729C147.701 124.014 147.891 124.323 148.152 124.394L149.341 124.774C149.579 124.845 149.769 124.679 149.769 124.37L149.746 122.921C149.722 122.636 149.531 122.327 149.294 122.256Z" fill="url(#paint23_linear)"/>
<path d="M155.596 124.303L154.407 123.923C154.169 123.851 153.979 124.018 153.979 124.326L154.002 125.776C154.002 126.061 154.193 126.37 154.454 126.441L155.643 126.821C155.881 126.892 156.071 126.726 156.071 126.417L156.047 124.968C156.047 124.683 155.833 124.374 155.596 124.303Z" fill="url(#paint24_linear)"/>
<path d="M149.174 50.0833L146.154 49.1094L146.178 50.8435L149.222 51.8177L149.174 50.0833Z" fill="#B5CDFB"/>
<path d="M157.474 56.354L146.203 52.6953L146.227 54.4296L157.498 58.0883L157.474 56.354Z" fill="url(#paint25_linear)"/>
<path d="M157.616 65.5951L151.98 63.7656L152.052 69.4199L157.687 71.2493L157.616 65.5951Z" fill="url(#paint26_linear)"/>
<path d="M151.886 58.1107L146.25 56.2812L146.345 61.9355L146.417 67.5897L152.052 69.4191L151.981 63.7649L151.886 58.1107Z" fill="#B5CDFB"/>
<path d="M142.184 88.1676L141.66 88.0012L141.78 95.8651L142.041 95.96V96.6014L141.78 96.5065L141.898 104.37L142.422 104.537L142.184 88.1676ZM141.946 72.9867L141.423 72.8203L141.637 87.3598L142.16 87.5262L141.946 72.9867Z" fill="url(#paint27_linear)"/>
<path d="M159.447 93.1312L158.02 92.6559L142.16 87.5244L141.636 87.358L125.8 82.2027L124.991 81.9414L125.015 82.5828L125.8 82.8441L133.599 85.3862V84.8635L134.122 85.0299V85.5526L141.66 87.9994L142.184 88.1658L158.02 93.2975L159.447 93.7726V93.1312Z" fill="#7C4BFF"/>
<path d="M133.718 93.2487L125.918 90.7068L125.134 90.4453V91.0867L125.918 91.3482L133.718 93.8665V93.2487ZM142.017 95.9334L141.755 95.8383L134.241 93.4151V94.0565L141.779 96.5036L142.041 96.5984L142.017 95.9334Z" fill="url(#paint28_linear)"/>
<path d="M134.123 85.0297L133.6 84.8633V85.386L133.718 93.2496V93.8911L133.837 101.755L134.36 101.921L134.242 94.0575V93.416L134.123 85.5522V85.0297Z" fill="url(#paint29_linear)"/>
<path d="M158.972 118.362L158.377 118.172L126.181 107.719V108.027V108.36L158.401 118.813L158.972 119.003V118.362Z" fill="url(#paint30_linear)"/>
<path d="M158.853 109.858L158.258 109.668L142.421 104.536L141.898 104.37L134.36 101.923L133.837 101.756L126.038 99.2144L125.253 98.9531V99.5946L126.061 99.8558L158.258 110.309L158.853 110.499V109.858Z" fill="url(#paint31_linear)"/>
<path d="M158.377 77.6664L157.783 77.4762L125.562 67.023L124.777 66.7617V67.4032L125.586 67.6644L141.423 72.8197L141.946 72.9861L157.806 78.1176L158.377 78.3078V77.6664Z" fill="#6645FF"/>
<path d="M132.268 74.5033C130.794 74.0282 129.629 75.0973 129.653 76.9265C129.676 78.7321 130.889 80.5851 132.363 81.0604C133.838 81.5355 135.003 80.4664 134.979 78.6372C134.932 76.8552 133.719 75.0022 132.268 74.5033Z" fill="url(#paint32_linear)"/>
<path opacity="0.1" d="M131.34 81.4194C131.221 82.3459 128.392 85.7195 125.895 88.5942C124.944 89.6871 124.04 90.6849 123.351 91.445L123.279 86.171L125.729 83.5575L129.723 79.3051C130.365 78.6399 131.483 79.0913 131.483 80.0178C131.459 80.4455 131.412 80.8969 131.34 81.4194Z" fill="#161616"/>
<path d="M115.551 80.6597C118.191 79.8518 123.161 78.2601 125.253 77.9275C127.346 77.595 129.177 74.7916 130.294 76.2883C131.412 77.785 127.94 80.7784 125.871 80.3033C124.944 81.2534 123.922 81.7287 122.709 81.8951C120.592 83.3441 119.451 84.4132 117.24 86.1475C115.884 87.2166 113.292 90.4714 115.147 92.1581C116.978 93.8212 119.237 93.3223 121.353 92.6334" stroke="#161616" stroke-width="0.09375" stroke-miterlimit="10" stroke-linecap="round"/>
<path d="M98.8586 109.477C97.2415 110.38 95.3393 110.665 93.5321 112.162C92.7474 112.827 91.9627 113.73 91.2493 115.036C91.2493 115.036 89.3946 117.436 86.8027 120.596C86.8027 120.596 86.8027 120.596 86.8027 120.619C82.2133 126.25 75.3887 134.28 72.9156 135.539C71.1799 136.418 67.0661 135.183 63.0713 133.543C67.2326 132.759 73.5815 130.36 74.8655 128.911C76.5776 127.01 82.7363 119.431 87.0641 115.702C88.5147 114.466 89.4659 113.516 90.0841 112.684C91.3443 111.021 91.2968 109.81 91.2968 107.695C91.2968 104.536 93.0089 105.961 91.2968 101.732C90.5834 99.9505 89.2042 98.4538 87.8488 97.3371C85.9703 95.7691 84.1394 94.8664 84.1394 94.8664C84.8289 94.3913 85.5186 94.0824 86.2081 94.0586C86.2556 94.0586 86.3033 94.0586 86.3508 94.0586C86.8027 94.0824 87.3495 94.3201 87.9915 94.6764C87.9915 94.6764 87.9915 94.6764 88.0154 94.6764C88.4909 94.9615 88.9902 95.3179 89.5134 95.7455C89.5134 95.7455 89.5373 95.7691 89.6086 95.8168C90.9876 96.9333 92.5095 98.5012 93.9362 100.164C93.9601 100.188 93.9839 100.212 94.0076 100.236C95.1253 101.542 96.1715 102.92 97.0514 104.203C97.1463 104.346 97.2177 104.441 97.2415 104.488C97.6695 105.153 98.0737 105.795 98.3829 106.365C99.1676 107.98 99.4529 109.145 98.8586 109.477Z" fill="url(#paint33_linear)"/>
<path d="M78.0044 131.618C81.3574 127.817 84.4487 123.85 86.8028 120.595C88.9429 117.625 90.4648 115.249 91.0116 114.133C91.0355 114.062 91.0829 114.014 91.1068 113.943C91.6775 112.803 92.3195 111.947 93.009 111.306C94.7688 109.595 96.7423 109.239 98.3592 108.217C98.7636 107.956 98.7161 107.315 98.3356 106.435C98.0738 105.794 97.6222 105.034 97.0515 104.202C96.243 102.991 95.1491 101.613 93.9602 100.282C93.9364 100.259 93.9125 100.235 93.8889 100.211C93.0803 99.3084 92.2482 98.4293 91.3921 97.6217C91.3921 97.6217 91.3921 97.6217 91.3683 97.5979C90.7263 96.98 90.1081 96.4099 89.4897 95.911C88.9665 95.4597 88.4435 95.0796 87.9442 94.7232C87.9442 94.7232 87.9442 94.7232 87.9203 94.7232C86.7076 93.868 85.6376 93.3691 84.9242 93.4403C84.5201 93.4642 84.1157 93.6067 83.7115 93.8205C80.5014 95.4833 77.4576 102.159 74.1998 104.416C73.1775 105.129 70.633 107.172 67.5417 109.762L67.5181 109.785C61.169 115.083 52.4183 122.591 49.2082 125.346C48.4235 126.035 47.9717 126.416 47.9717 126.416" stroke="#161616" stroke-width="0.09375" stroke-miterlimit="10" stroke-linecap="round"/>
<path opacity="0.1" d="M125.752 93.9636C124.896 95.389 122.993 96.5532 120.925 97.1469C118.333 97.9073 114.505 100.829 111.199 101.59C109.653 101.946 107.418 101.922 105.302 101.447C104.493 101.447 103.661 101.495 102.805 101.59C101.783 101.685 100.737 101.898 99.7378 102.231C98.7627 102.564 97.8831 103.276 97.0507 104.227C97.0268 104.25 97.0268 104.274 97.0032 104.274C97.0982 104.417 97.1695 104.512 97.1934 104.559C97.2647 104.678 97.1934 104.583 96.9794 104.298C96.3848 103.514 94.8154 101.423 93.1986 99.5466C92.5802 98.8338 91.962 98.1924 91.3913 97.6222C91.3913 97.6222 91.3913 97.6222 91.3675 97.5984C90.4878 96.7193 89.7745 96.0779 89.5366 95.8641C89.4891 95.8166 89.4653 95.7928 89.4414 95.7928C89.4414 95.7928 89.4653 95.8166 89.5366 95.8641C89.9885 95.4603 90.4401 95.0563 90.892 94.6286C91.8907 96.957 94.1498 100.449 98.5964 99.8791C99.4048 99.784 100.166 99.6414 100.879 99.4753C100.927 99.4514 100.998 99.4514 101.045 99.4276C106.063 98.2637 109.178 95.9353 115.361 95.8641C115.717 95.8641 116.05 95.8402 116.383 95.8166C117.334 95.769 118.214 95.6264 119.023 95.4839C119.379 95.4126 119.736 95.3413 120.069 95.2465C122.875 94.5812 124.729 93.6547 125.752 93.9636Z" fill="#161616"/>
<path d="M24.502 31.0547H21.0303V34.8084H24.502V31.0547Z" fill="url(#paint34_linear)"/>
<path d="M10.5439 26.1836H67.6372" stroke="url(#paint35_linear)" stroke-width="0.09375" stroke-miterlimit="10" stroke-linecap="round"/>
<path d="M60.6701 22.4531H17.9395V24.52H60.6701V22.4531Z" fill="url(#paint36_linear)"/>
<path d="M32.9913 64.1719H26.1191V65.4547H32.9913V64.1719Z" fill="url(#paint37_linear)"/>
<path d="M51.6101 66.168H26.1191V67.4508H51.6101V66.168Z" fill="url(#paint38_linear)"/>
<path d="M37.7708 91.8477H26.1191V101.279H37.7708V91.8477Z" fill="url(#paint39_linear)"/>
<path d="M90.2032 69.2812H72.25V78.7128H90.2032V69.2812Z" fill="url(#paint40_linear)"/>
<path d="M52.7512 80.5859H41.0996V90.0175H52.7512V80.5859Z" fill="url(#paint41_linear)"/>
<path d="M56.128 57.1172H21.5771V60.4907H56.128V57.1172Z" fill="url(#paint42_linear)"/>
<path d="M73.6772 22.8594H71.8223V24.7124H73.6772V22.8594Z" fill="url(#paint43_linear)"/>
<path d="M77.386 22.8594H75.5312V24.7124H77.386V22.8594Z" fill="url(#paint44_linear)"/>
<path d="M75.5317 24.7109H73.6768V26.564H75.5317V24.7109Z" fill="url(#paint45_linear)"/>
<path d="M75.5317 20.9805H73.6768V22.8336H75.5317V20.9805Z" fill="url(#paint46_linear)"/>
<path d="M106.115 62.1953V67.2081H111.133V62.1953H106.115Z" fill="url(#paint47_linear)"/>
<path d="M111.133 67.2266V72.2394H116.15V67.2266H111.133Z" fill="url(#paint48_linear)"/>
<path d="M101.105 67.2109V72.2237H106.123V67.2109H101.105Z" fill="url(#paint49_linear)"/>
<path d="M187.293 24.0703H182.275V29.0831H187.293V24.0703Z" fill="url(#paint50_linear)"/>
<path d="M182.299 29.082H177.281V34.0948H182.299V29.082Z" fill="url(#paint51_linear)"/>
<path d="M182.299 19.0547H177.281V24.0675H182.299V19.0547Z" fill="url(#paint52_linear)"/>
<path d="M21.8391 104.914H19.9844V106.767H21.8391V104.914Z" fill="url(#paint53_linear)"/>
<path d="M25.5481 104.914H23.6934V106.767H25.5481V104.914Z" fill="url(#paint54_linear)"/>
<path d="M23.6936 106.766H21.8389V108.619H23.6936V106.766Z" fill="url(#paint55_linear)"/>
<path d="M23.6936 103.062H21.8389V104.916H23.6936V103.062Z" fill="url(#paint56_linear)"/>
<path fill-rule="evenodd" clip-rule="evenodd" d="M126.949 20.0273L146.4 26.3943L146.289 26.7329L126.838 20.366L126.949 20.0273Z" fill="url(#paint57_linear)"/>
<path fill-rule="evenodd" clip-rule="evenodd" d="M130.374 11.0703L154.676 19.0528L154.565 19.3913L130.263 11.4088L130.374 11.0703Z" fill="url(#paint58_linear)"/>
<path fill-rule="evenodd" clip-rule="evenodd" d="M87.4682 16.3368H86.7549V15.9805H87.4682V16.3368Z" fill="url(#paint59_linear)"/>
<path fill-rule="evenodd" clip-rule="evenodd" d="M89.625 16.3368H88.9189V15.9805H89.625V16.3368ZM92.4488 16.3368H91.0368V15.9805H92.4488V16.3368ZM95.2724 16.3368H93.8606V15.9805H95.2724V16.3368ZM98.0962 16.3368H96.6844V15.9805H98.0962V16.3368ZM100.92 16.3368H99.508V15.9805H100.92V16.3368ZM103.744 16.3368H102.332V15.9805H103.744V16.3368ZM106.568 16.3368H105.155V15.9805H106.568V16.3368ZM109.391 16.3368H107.979V15.9805H109.391V16.3368ZM111.509 16.3368H110.803V15.9805H111.509V16.3368Z" fill="url(#paint60_linear)"/>
<path fill-rule="evenodd" clip-rule="evenodd" d="M112.936 16.3368H112.223V15.9805H112.936V16.3368Z" fill="url(#paint61_linear)"/>
<path fill-rule="evenodd" clip-rule="evenodd" d="M112.936 14.4345H86.7549V14.0781H112.936V14.4345Z" fill="url(#paint62_linear)"/>
<path fill-rule="evenodd" clip-rule="evenodd" d="M112.936 12.5126H86.7549V12.1562H112.936V12.5126Z" fill="url(#paint63_linear)"/>
<path fill-rule="evenodd" clip-rule="evenodd" d="M168.331 24.0231L156.68 20.1507L156.792 19.8125L168.444 23.685L168.331 24.0231Z" fill="url(#paint64_linear)"/>
<path fill-rule="evenodd" clip-rule="evenodd" d="M166.215 33.2887L149.38 27.6582L149.493 27.3203L166.329 32.9509L166.215 33.2887Z" fill="url(#paint65_linear)"/>
<path fill-rule="evenodd" clip-rule="evenodd" d="M34.6201 105.132V104.367H34.9768V105.132H34.6201ZM34.6201 108.193V106.663H34.9768V108.193H34.6201ZM34.6201 111.254V109.723H34.9768V111.254H34.6201ZM34.6201 114.315V112.784H34.9768V114.315H34.6201ZM34.6201 117.375V115.845H34.9768V117.375H34.6201ZM34.6201 120.436V118.906H34.9768V120.436H34.6201ZM34.6201 122.732V121.967H34.9768V122.732H34.6201Z" fill="url(#paint66_linear)"/>
<path fill-rule="evenodd" clip-rule="evenodd" d="M88.2646 69.0699V68.3047H88.6216V69.0699H88.2646ZM88.2646 72.1306V70.6002H88.6216V72.1306H88.2646ZM88.2646 75.1914V73.661H88.6216V75.1914H88.2646ZM88.2646 78.2521V76.7218H88.6216V78.2521H88.2646ZM88.2646 81.3129V79.7825H88.6216V81.3129H88.2646ZM88.2646 84.3736V82.8433H88.6216V84.3736H88.2646ZM88.2646 86.6692V85.904H88.6216V86.6692H88.2646Z" fill="url(#paint67_linear)"/>
<path d="M64.8069 69.2812H56.0801V70.3741H64.8069V69.2812Z" fill="url(#paint68_linear)"/>
<path d="M68.9443 71.7031H56.0801V72.796H68.9443V71.7031Z" fill="url(#paint69_linear)"/>
<path d="M68.9443 74.1016H56.0801V75.1945H68.9443V74.1016Z" fill="url(#paint70_linear)"/>
<path d="M68.9443 76.5H56.0801V77.5929H68.9443V76.5Z" fill="url(#paint71_linear)"/>
<path d="M68.9443 78.9219H56.0801V80.0148H68.9443V78.9219Z" fill="url(#paint72_linear)"/>
<path d="M68.9443 83.2734H56.0801V84.3661H68.9443V83.2734Z" fill="url(#paint73_linear)"/>
<path d="M68.9443 85.6719H56.0801V86.7648H68.9443V85.6719Z" fill="url(#paint74_linear)"/>
<path d="M26.927 116.676H18.2002V117.768H26.927V116.676Z" fill="url(#paint75_linear)"/>
<path d="M31.0646 119.074H18.2002V120.167H31.0646V119.074Z" fill="url(#paint76_linear)"/>
<path d="M31.0646 121.473H18.2002V122.566H31.0646V121.473Z" fill="url(#paint77_linear)"/>
<path d="M26.927 126.508H18.2002V127.601H26.927V126.508Z" fill="url(#paint78_linear)"/>
<path d="M31.0646 128.91H18.2002V130.003H31.0646V128.91Z" fill="url(#paint79_linear)"/>
<path d="M31.0646 131.309H18.2002V132.401H31.0646V131.309Z" fill="url(#paint80_linear)"/>
<path d="M86.7549 21.9062H112.936" stroke="url(#paint81_linear)" stroke-width="0.0350401" stroke-miterlimit="10" stroke-linecap="round"/>
<path d="M86.7549 20.0078H112.936" stroke="url(#paint82_linear)" stroke-width="0.0350401" stroke-miterlimit="10" stroke-linecap="round"/>
<path d="M86.7549 18.082H112.936" stroke="url(#paint83_linear)" stroke-width="0.0350401" stroke-miterlimit="10" stroke-linecap="round"/>
<path d="M68.0176 63.813H88.4439V41.1484" stroke="url(#paint84_linear)" stroke-width="0.09375" stroke-miterlimit="10" stroke-linecap="round"/>
<path d="M90.1318 80.207H72.25V81.2997H90.1318V80.207Z" fill="url(#paint85_linear)"/>
<path d="M90.1318 82.6055H72.25V83.6984H90.1318V82.6055Z" fill="url(#paint86_linear)"/>
<path d="M117.192 50.7266H99.1914" stroke="url(#paint87_linear)" stroke-width="0.09375" stroke-miterlimit="10" stroke-linecap="round"/>
<path d="M111.628 55.9531H93.6514" stroke="url(#paint88_linear)" stroke-width="0.09375" stroke-miterlimit="10" stroke-linecap="round"/>
<path d="M111.628 54.8359H93.6514" stroke="url(#paint89_linear)" stroke-width="0.09375" stroke-miterlimit="10" stroke-linecap="round"/>
<path d="M113.934 49.2734H99.1914" stroke="url(#paint90_linear)" stroke-width="0.09375" stroke-miterlimit="10" stroke-linecap="round"/>
<path fill-rule="evenodd" clip-rule="evenodd" d="M173.236 47.2674L173.227 46.5675L173.583 46.5625L173.593 47.2624L173.236 47.2674ZM173.276 50.0667L173.256 48.6672L173.613 48.6621L173.633 50.0616L173.276 50.0667ZM173.316 52.8662L173.296 51.4664L173.653 51.4614L173.672 52.8611L173.316 52.8662ZM173.355 55.6657L173.336 54.2659L173.692 54.2609L173.712 55.6606L173.355 55.6657ZM173.395 58.465L173.375 57.0652L173.732 57.0602L173.752 58.4599L173.395 58.465ZM173.435 61.2645L173.415 59.8647L173.772 59.8597L173.791 61.2594L173.435 61.2645ZM173.474 64.0637L173.455 62.6642L173.811 62.6592L173.831 64.0587L173.474 64.0637ZM173.514 66.8632L173.494 65.4635L173.851 65.4584L173.871 66.8582L173.514 66.8632ZM173.554 69.6627L173.534 68.263L173.89 68.2579L173.91 69.6577L173.554 69.6627ZM173.593 72.462L173.573 71.0623L173.93 71.0572L173.95 72.457L173.593 72.462ZM173.633 75.2615L173.613 73.8617L173.97 73.8567L173.989 75.2565L173.633 75.2615ZM173.672 78.0608L173.653 76.6612L174.009 76.6562L174.029 78.0557L173.672 78.0608ZM173.702 80.1604L173.692 79.4605L174.049 79.4555L174.059 80.1554L173.702 80.1604Z" fill="url(#paint91_linear)"/>
<path fill-rule="evenodd" clip-rule="evenodd" d="M175.71 54.2757L175.7 53.5754L176.057 53.5703L176.067 54.2706L175.71 54.2757ZM175.75 57.077L175.73 55.6764L176.087 55.6713L176.106 57.072L175.75 57.077ZM175.789 59.8784L175.769 58.4777L176.126 58.4726L176.146 59.8735L175.789 59.8784ZM175.829 62.6799L175.809 61.2793L176.166 61.2742L176.186 62.6749L175.829 62.6799ZM175.869 65.4813L175.849 64.0806L176.206 64.0755L176.225 65.4762L175.869 65.4813ZM175.908 68.2826L175.889 66.8819L176.245 66.8769L176.265 68.2775L175.908 68.2826ZM175.948 71.0839L175.928 69.6833L176.285 69.6782L176.305 71.0789L175.948 71.0839ZM175.988 73.8855L175.968 72.4848L176.324 72.4798L176.344 73.8804L175.988 73.8855ZM176.027 76.6868L176.007 75.2861L176.364 75.2811L176.384 76.6818L176.027 76.6868ZM176.067 79.4881L176.047 78.0875L176.404 78.0824L176.423 79.4831L176.067 79.4881ZM176.106 82.2895L176.087 80.8888L176.443 80.8838L176.463 82.2844L176.106 82.2895ZM176.146 85.091L176.126 83.6902L176.483 83.6851L176.503 85.086L176.146 85.091ZM176.176 87.192L176.166 86.4917L176.523 86.4867L176.532 87.187L176.176 87.192Z" fill="url(#paint92_linear)"/>
<path d="M189.456 128.387H181.538V130.525H189.456V128.387Z" fill="url(#paint93_linear)"/>
<path d="M157.806 78.1159L141.945 72.9844L142.159 87.5239L158.02 92.6554L157.806 78.1159Z" fill="url(#paint94_linear)"/>
<path d="M141.661 88.0017L134.123 85.5547L134.242 93.4183L141.78 95.8653L141.661 88.0017Z" fill="#75E0E6"/>
<path opacity="0.36" d="M125.182 116.792L125.3 125.179C125.3 125.416 125.467 125.677 125.657 125.749L131.174 127.53L157.188 43.4772C157.188 43.2395 157.021 42.9783 156.831 42.9306L149.46 40.5312L125.182 116.792ZM125.182 116.792L149.436 40.5312L125.182 116.792Z" fill="url(#paint95_linear)"/>
<path d="M130.367 116.147L129.178 115.766C128.94 115.695 128.75 115.861 128.75 116.17L128.774 117.619C128.774 117.904 128.988 118.213 129.225 118.285L130.415 118.665C130.652 118.736 130.843 118.57 130.843 118.261L130.819 116.812C130.795 116.527 130.605 116.242 130.367 116.147Z" fill="url(#paint96_linear)"/>
<defs>
<linearGradient id="paint0_linear" x1="111.753" y1="20.552" x2="111.753" y2="128.785" gradientUnits="userSpaceOnUse">
<stop stop-color="#C2F4FF" stop-opacity="0"/>
<stop offset="1" stop-color="#5E5AFE"/>
</linearGradient>
<linearGradient id="paint1_linear" x1="153.978" y1="12.5977" x2="153.978" y2="122.702" gradientUnits="userSpaceOnUse">
<stop stop-color="#526EFF"/>
<stop offset="1" stop-color="#7C00E2"/>
</linearGradient>
<linearGradient id="paint2_linear" x1="128.181" y1="113.138" x2="137.829" y2="96.0347" gradientUnits="userSpaceOnUse">
<stop stop-color="#75E0E6"/>
<stop offset="1" stop-color="#75E0E6" stop-opacity="0"/>
</linearGradient>
<linearGradient id="paint3_linear" x1="152.261" y1="63.54" x2="156.713" y2="60.1146" gradientUnits="userSpaceOnUse">
<stop stop-color="#75E0E6"/>
<stop offset="1" stop-color="#75E0E6" stop-opacity="0"/>
</linearGradient>
<linearGradient id="paint4_linear" x1="74.6242" y1="87.9281" x2="74.6242" y2="137.397" gradientUnits="userSpaceOnUse">
<stop stop-color="#7BE6FD"/>
<stop offset="1" stop-color="#1410FA"/>
</linearGradient>
<linearGradient id="paint5_linear" x1="42.371" y1="40.8164" x2="42.371" y2="42.6933" gradientUnits="userSpaceOnUse">
<stop stop-color="#95F9FF"/>
<stop offset="1" stop-color="#6385FF"/>
</linearGradient>
<linearGradient id="paint6_linear" x1="128.5" y1="99.9414" x2="131.75" y2="91.3164" gradientUnits="userSpaceOnUse">
<stop stop-color="#FBEFCB"/>
<stop offset="1" stop-color="#FBEFCB" stop-opacity="0"/>
</linearGradient>
<linearGradient id="paint7_linear" x1="42.371" y1="44.3359" x2="42.371" y2="46.2126" gradientUnits="userSpaceOnUse">
<stop stop-color="#95F9FF"/>
<stop offset="1" stop-color="#6385FF"/>
</linearGradient>
<linearGradient id="paint8_linear" x1="22.7652" y1="40.8164" x2="22.7652" y2="44.5699" gradientUnits="userSpaceOnUse">
<stop stop-color="#95F9FF"/>
<stop offset="1" stop-color="#6385FF"/>
</linearGradient>
<linearGradient id="paint9_linear" x1="33.1815" y1="62.1523" x2="33.1815" y2="63.4352" gradientUnits="userSpaceOnUse">
<stop stop-color="#95F9FF"/>
<stop offset="1" stop-color="#6385FF"/>
</linearGradient>
<linearGradient id="paint10_linear" x1="47.0209" y1="67.8971" x2="47.0209" y2="79.0665" gradientUnits="userSpaceOnUse">
<stop stop-color="#99EDFF"/>
<stop offset="1" stop-color="#433FFF"/>
</linearGradient>
<linearGradient id="paint11_linear" x1="100.14" y1="15.9625" x2="100.14" y2="26.5412" gradientUnits="userSpaceOnUse">
<stop stop-color="#99EDFF"/>
<stop offset="1" stop-color="#433FFF"/>
</linearGradient>
<linearGradient id="paint12_linear" x1="175.129" y1="128.672" x2="175.135" y2="132.047" gradientUnits="userSpaceOnUse">
<stop stop-color="#75E0E6"/>
<stop offset="1" stop-color="#FC22CC"/>
</linearGradient>
<linearGradient id="paint13_linear" x1="142.17" y1="13.1308" x2="142.17" y2="143.044" gradientUnits="userSpaceOnUse">
<stop stop-color="#7BE6FD"/>
<stop offset="1" stop-color="#1410FA"/>
</linearGradient>
<linearGradient id="paint14_linear" x1="80.6818" y1="17.3921" x2="80.6818" y2="128.018" gradientUnits="userSpaceOnUse">
<stop stop-color="#7BE6FD"/>
<stop offset="1" stop-color="#1410FA"/>
</linearGradient>
<linearGradient id="paint15_linear" x1="24.5136" y1="96.1836" x2="24.5136" y2="113.289" gradientUnits="userSpaceOnUse">
<stop stop-color="#95F9FF"/>
<stop offset="1" stop-color="#6385FF"/>
</linearGradient>
<linearGradient id="paint16_linear" x1="39.2801" y1="20.0078" x2="39.2801" y2="47.4" gradientUnits="userSpaceOnUse">
<stop stop-color="#8E48FF"/>
<stop offset="1" stop-color="#0052CC"/>
</linearGradient>
<linearGradient id="paint17_linear" x1="147.701" y1="20.7969" x2="147.701" y2="130.949" gradientUnits="userSpaceOnUse">
<stop stop-color="#75E0E6"/>
<stop offset="1" stop-color="#FC22CC"/>
</linearGradient>
<linearGradient id="paint18_linear" x1="134.436" y1="37.891" x2="134.436" y2="64.9331" gradientUnits="userSpaceOnUse">
<stop stop-color="#99EDFF"/>
<stop offset="1" stop-color="#433FFF"/>
</linearGradient>
<linearGradient id="paint19_linear" x1="141.994" y1="65.6016" x2="141.994" y2="120.114" gradientUnits="userSpaceOnUse">
<stop stop-color="#E0CBFB"/>
<stop offset="1" stop-color="#DDCBFB" stop-opacity="0"/>
</linearGradient>
<linearGradient id="paint20_linear" x1="138.07" y1="94.0586" x2="138.07" y2="104.369" gradientUnits="userSpaceOnUse">
<stop stop-color="#E0CBFB"/>
<stop offset="1" stop-color="#E0CBFB" stop-opacity="0"/>
</linearGradient>
<linearGradient id="paint21_linear" x1="136.096" y1="117.75" x2="136.096" y2="120.681" gradientUnits="userSpaceOnUse">
<stop stop-color="#95F9FF"/>
<stop offset="1" stop-color="#6385FF"/>
</linearGradient>
<linearGradient id="paint22_linear" x1="142.398" y1="119.82" x2="142.398" y2="122.751" gradientUnits="userSpaceOnUse">
<stop stop-color="#95F9FF"/>
<stop offset="1" stop-color="#6385FF"/>
</linearGradient>
<linearGradient id="paint23_linear" x1="148.723" y1="121.859" x2="148.723" y2="124.79" gradientUnits="userSpaceOnUse">
<stop stop-color="#95F9FF"/>
<stop offset="1" stop-color="#6385FF"/>
</linearGradient>
<linearGradient id="paint24_linear" x1="155.025" y1="123.906" x2="155.025" y2="126.837" gradientUnits="userSpaceOnUse">
<stop stop-color="#95F9FF"/>
<stop offset="1" stop-color="#6385FF"/>
</linearGradient>
<linearGradient id="paint25_linear" x1="151.75" y1="58.0632" x2="153.25" y2="54.0632" gradientUnits="userSpaceOnUse">
<stop stop-color="#FEEFF0"/>
<stop offset="1" stop-color="#FEEFF0" stop-opacity="0"/>
</linearGradient>
<linearGradient id="paint26_linear" x1="155.409" y1="69.16" x2="157.607" y2="68.5651" gradientUnits="userSpaceOnUse">
<stop stop-color="#7F75F7"/>
<stop offset="1" stop-color="#D64BF9"/>
</linearGradient>
<linearGradient id="paint27_linear" x1="142.023" y1="95.6821" x2="142.436" y2="95.6775" gradientUnits="userSpaceOnUse">
<stop stop-color="#7761FF"/>
<stop offset="1" stop-color="#AC4BF9"/>
</linearGradient>
<linearGradient id="paint28_linear" x1="135.29" y1="94.8806" x2="138.873" y2="91.3869" gradientUnits="userSpaceOnUse">
<stop stop-color="#7761FF"/>
<stop offset="1" stop-color="#AC4BF9"/>
</linearGradient>
<linearGradient id="paint29_linear" x1="134.057" y1="97.159" x2="134.371" y2="97.154" gradientUnits="userSpaceOnUse">
<stop stop-color="#7761FF"/>
<stop offset="1" stop-color="#AC4BF9"/>
</linearGradient>
<linearGradient id="paint30_linear" x1="145.878" y1="115.853" x2="152.448" y2="109.078" gradientUnits="userSpaceOnUse">
<stop stop-color="#7761FF"/>
<stop offset="1" stop-color="#AC4BF9"/>
</linearGradient>
<linearGradient id="paint31_linear" x1="145.436" y1="107.276" x2="152.158" y2="100.334" gradientUnits="userSpaceOnUse">
<stop stop-color="#7761FF"/>
<stop offset="1" stop-color="#AC4BF9"/>
</linearGradient>
<linearGradient id="paint32_linear" x1="132.852" y1="79.2796" x2="136.637" y2="75.9831" gradientUnits="userSpaceOnUse">
<stop stop-color="#5563EE"/>
<stop offset="1" stop-color="#AC4BF9"/>
</linearGradient>
<linearGradient id="paint33_linear" x1="81.4199" y1="87.9281" x2="81.4199" y2="137.397" gradientUnits="userSpaceOnUse">
<stop stop-color="#7BE6FD"/>
<stop offset="1" stop-color="#1410FA"/>
</linearGradient>
<linearGradient id="paint34_linear" x1="22.7661" y1="31.0547" x2="22.7661" y2="34.8084" gradientUnits="userSpaceOnUse">
<stop stop-color="#95F9FF"/>
<stop offset="1" stop-color="#6385FF"/>
</linearGradient>
<linearGradient id="paint35_linear" x1="39.0906" y1="26.1836" x2="39.0906" y2="27.1836" gradientUnits="userSpaceOnUse">
<stop stop-color="#8E48FF"/>
<stop offset="1" stop-color="#0052CC"/>
</linearGradient>
<linearGradient id="paint36_linear" x1="39.6552" y1="22.1498" x2="39.6552" y2="24.5975" gradientUnits="userSpaceOnUse">
<stop stop-color="#99EDFF"/>
<stop offset="1" stop-color="#433FFF"/>
</linearGradient>
<linearGradient id="paint37_linear" x1="29.5552" y1="64.1719" x2="29.5552" y2="65.4547" gradientUnits="userSpaceOnUse">
<stop stop-color="#95F9FF"/>
<stop offset="1" stop-color="#6385FF"/>
</linearGradient>
<linearGradient id="paint38_linear" x1="38.8646" y1="66.168" x2="38.8646" y2="67.4508" gradientUnits="userSpaceOnUse">
<stop stop-color="#95F9FF"/>
<stop offset="1" stop-color="#6385FF"/>
</linearGradient>
<linearGradient id="paint39_linear" x1="32.0405" y1="90.4635" x2="32.0405" y2="101.633" gradientUnits="userSpaceOnUse">
<stop stop-color="#99EDFF"/>
<stop offset="1" stop-color="#433FFF"/>
</linearGradient>
<linearGradient id="paint40_linear" x1="81.3738" y1="67.8971" x2="81.3738" y2="79.0665" gradientUnits="userSpaceOnUse">
<stop stop-color="#99EDFF"/>
<stop offset="1" stop-color="#433FFF"/>
</linearGradient>
<linearGradient id="paint41_linear" x1="47.0209" y1="79.2018" x2="47.0209" y2="90.3712" gradientUnits="userSpaceOnUse">
<stop stop-color="#99EDFF"/>
<stop offset="1" stop-color="#433FFF"/>
</linearGradient>
<linearGradient id="paint42_linear" x1="39.1359" y1="56.6221" x2="39.1359" y2="60.6172" gradientUnits="userSpaceOnUse">
<stop stop-color="#99EDFF"/>
<stop offset="1" stop-color="#433FFF"/>
</linearGradient>
<linearGradient id="paint43_linear" x1="72.765" y1="22.5874" x2="72.765" y2="24.7819" gradientUnits="userSpaceOnUse">
<stop stop-color="#99EDFF"/>
<stop offset="1" stop-color="#433FFF"/>
</linearGradient>
<linearGradient id="paint44_linear" x1="76.4738" y1="22.5874" x2="76.4738" y2="24.7819" gradientUnits="userSpaceOnUse">
<stop stop-color="#99EDFF"/>
<stop offset="1" stop-color="#433FFF"/>
</linearGradient>
<linearGradient id="paint45_linear" x1="74.6194" y1="24.439" x2="74.6194" y2="26.6335" gradientUnits="userSpaceOnUse">
<stop stop-color="#99EDFF"/>
<stop offset="1" stop-color="#433FFF"/>
</linearGradient>
<linearGradient id="paint46_linear" x1="74.6194" y1="20.7085" x2="74.6194" y2="22.903" gradientUnits="userSpaceOnUse">
<stop stop-color="#99EDFF"/>
<stop offset="1" stop-color="#433FFF"/>
</linearGradient>
<linearGradient id="paint47_linear" x1="108.665" y1="61.4596" x2="108.665" y2="67.3961" gradientUnits="userSpaceOnUse">
<stop stop-color="#99EDFF"/>
<stop offset="1" stop-color="#433FFF"/>
</linearGradient>
<linearGradient id="paint48_linear" x1="113.683" y1="66.4909" x2="113.683" y2="72.4273" gradientUnits="userSpaceOnUse">
<stop stop-color="#99EDFF"/>
<stop offset="1" stop-color="#433FFF"/>
</linearGradient>
<linearGradient id="paint49_linear" x1="103.655" y1="66.4753" x2="103.655" y2="72.4117" gradientUnits="userSpaceOnUse">
<stop stop-color="#99EDFF"/>
<stop offset="1" stop-color="#433FFF"/>
</linearGradient>
<linearGradient id="paint50_linear" x1="184.825" y1="23.3346" x2="184.825" y2="29.2711" gradientUnits="userSpaceOnUse">
<stop stop-color="#99EDFF"/>
<stop offset="1" stop-color="#433FFF"/>
</linearGradient>
<linearGradient id="paint51_linear" x1="179.831" y1="28.3464" x2="179.831" y2="34.2828" gradientUnits="userSpaceOnUse">
<stop stop-color="#99EDFF"/>
<stop offset="1" stop-color="#433FFF"/>
</linearGradient>
<linearGradient id="paint52_linear" x1="179.831" y1="18.319" x2="179.831" y2="24.2554" gradientUnits="userSpaceOnUse">
<stop stop-color="#99EDFF"/>
<stop offset="1" stop-color="#433FFF"/>
</linearGradient>
<linearGradient id="paint53_linear" x1="20.927" y1="104.642" x2="20.927" y2="106.837" gradientUnits="userSpaceOnUse">
<stop stop-color="#99EDFF"/>
<stop offset="1" stop-color="#433FFF"/>
</linearGradient>
<linearGradient id="paint54_linear" x1="24.6359" y1="104.642" x2="24.6359" y2="106.837" gradientUnits="userSpaceOnUse">
<stop stop-color="#99EDFF"/>
<stop offset="1" stop-color="#433FFF"/>
</linearGradient>
<linearGradient id="paint55_linear" x1="22.7815" y1="106.494" x2="22.7815" y2="108.688" gradientUnits="userSpaceOnUse">
<stop stop-color="#99EDFF"/>
<stop offset="1" stop-color="#433FFF"/>
</linearGradient>
<linearGradient id="paint56_linear" x1="22.7815" y1="102.791" x2="22.7815" y2="104.985" gradientUnits="userSpaceOnUse">
<stop stop-color="#99EDFF"/>
<stop offset="1" stop-color="#433FFF"/>
</linearGradient>
<linearGradient id="paint57_linear" x1="137.221" y1="22.8252" x2="136.534" y2="25.2227" gradientUnits="userSpaceOnUse">
<stop stop-color="#95F9FF"/>
<stop offset="1" stop-color="#6385FF"/>
</linearGradient>
<linearGradient id="paint58_linear" x1="143.22" y1="14.5422" x2="142.372" y2="17.5198" gradientUnits="userSpaceOnUse">
<stop stop-color="#95F9FF"/>
<stop offset="1" stop-color="#6385FF"/>
</linearGradient>
<linearGradient id="paint59_linear" x1="87.1116" y1="15.9805" x2="87.1116" y2="16.3368" gradientUnits="userSpaceOnUse">
<stop stop-color="#95F9FF"/>
<stop offset="1" stop-color="#6385FF"/>
</linearGradient>
<linearGradient id="paint60_linear" x1="100.214" y1="15.9805" x2="100.214" y2="16.3368" gradientUnits="userSpaceOnUse">
<stop stop-color="#95F9FF"/>
<stop offset="1" stop-color="#6385FF"/>
</linearGradient>
<linearGradient id="paint61_linear" x1="112.579" y1="15.9805" x2="112.579" y2="16.3368" gradientUnits="userSpaceOnUse">
<stop stop-color="#95F9FF"/>
<stop offset="1" stop-color="#6385FF"/>
</linearGradient>
<linearGradient id="paint62_linear" x1="99.8452" y1="14.0781" x2="99.8452" y2="14.4345" gradientUnits="userSpaceOnUse">
<stop stop-color="#95F9FF"/>
<stop offset="1" stop-color="#6385FF"/>
</linearGradient>
<linearGradient id="paint63_linear" x1="99.8452" y1="12.1562" x2="99.8452" y2="12.5126" gradientUnits="userSpaceOnUse">
<stop stop-color="#95F9FF"/>
<stop offset="1" stop-color="#6385FF"/>
</linearGradient>
<linearGradient id="paint64_linear" x1="162.924" y1="21.5693" x2="162.477" y2="23.0646" gradientUnits="userSpaceOnUse">
<stop stop-color="#95F9FF"/>
<stop offset="1" stop-color="#6385FF"/>
</linearGradient>
<linearGradient id="paint65_linear" x1="158.375" y1="29.8105" x2="157.75" y2="31.9355" gradientUnits="userSpaceOnUse">
<stop stop-color="#95F9FF"/>
<stop offset="1" stop-color="#6385FF"/>
</linearGradient>
<linearGradient id="paint66_linear" x1="34.7985" y1="104.367" x2="34.7985" y2="122.732" gradientUnits="userSpaceOnUse">
<stop stop-color="#95F9FF"/>
<stop offset="1" stop-color="#6385FF"/>
</linearGradient>
<linearGradient id="paint67_linear" x1="88.479" y1="81.5423" x2="88.6266" y2="81.5413" gradientUnits="userSpaceOnUse">
<stop stop-color="#7761FF"/>
<stop offset="1" stop-color="#AC4BF9"/>
</linearGradient>
<linearGradient id="paint68_linear" x1="60.4435" y1="69.2812" x2="60.4435" y2="70.3741" gradientUnits="userSpaceOnUse">
<stop stop-color="#95F9FF"/>
<stop offset="1" stop-color="#6385FF"/>
</linearGradient>
<linearGradient id="paint69_linear" x1="62.5122" y1="71.7031" x2="62.5122" y2="72.796" gradientUnits="userSpaceOnUse">
<stop stop-color="#95F9FF"/>
<stop offset="1" stop-color="#6385FF"/>
</linearGradient>
<linearGradient id="paint70_linear" x1="62.5122" y1="74.1016" x2="62.5122" y2="75.1945" gradientUnits="userSpaceOnUse">
<stop stop-color="#95F9FF"/>
<stop offset="1" stop-color="#6385FF"/>
</linearGradient>
<linearGradient id="paint71_linear" x1="62.5122" y1="76.5" x2="62.5122" y2="77.5929" gradientUnits="userSpaceOnUse">
<stop stop-color="#95F9FF"/>
<stop offset="1" stop-color="#6385FF"/>
</linearGradient>
<linearGradient id="paint72_linear" x1="62.5122" y1="78.9219" x2="62.5122" y2="80.0148" gradientUnits="userSpaceOnUse">
<stop stop-color="#95F9FF"/>
<stop offset="1" stop-color="#6385FF"/>
</linearGradient>
<linearGradient id="paint73_linear" x1="62.5122" y1="83.2734" x2="62.5122" y2="84.3661" gradientUnits="userSpaceOnUse">
<stop stop-color="#95F9FF"/>
<stop offset="1" stop-color="#6385FF"/>
</linearGradient>
<linearGradient id="paint74_linear" x1="62.5122" y1="85.6719" x2="62.5122" y2="86.7648" gradientUnits="userSpaceOnUse">
<stop stop-color="#95F9FF"/>
<stop offset="1" stop-color="#6385FF"/>
</linearGradient>
<linearGradient id="paint75_linear" x1="22.5636" y1="116.676" x2="22.5636" y2="117.768" gradientUnits="userSpaceOnUse">
<stop stop-color="#95F9FF"/>
<stop offset="1" stop-color="#6385FF"/>
</linearGradient>
<linearGradient id="paint76_linear" x1="24.6324" y1="119.074" x2="24.6324" y2="120.167" gradientUnits="userSpaceOnUse">
<stop stop-color="#95F9FF"/>
<stop offset="1" stop-color="#6385FF"/>
</linearGradient>
<linearGradient id="paint77_linear" x1="24.6324" y1="121.473" x2="24.6324" y2="122.566" gradientUnits="userSpaceOnUse">
<stop stop-color="#95F9FF"/>
<stop offset="1" stop-color="#6385FF"/>
</linearGradient>
<linearGradient id="paint78_linear" x1="22.5636" y1="126.508" x2="22.5636" y2="127.601" gradientUnits="userSpaceOnUse">
<stop stop-color="#95F9FF"/>
<stop offset="1" stop-color="#6385FF"/>
</linearGradient>
<linearGradient id="paint79_linear" x1="24.6324" y1="128.91" x2="24.6324" y2="130.003" gradientUnits="userSpaceOnUse">
<stop stop-color="#95F9FF"/>
<stop offset="1" stop-color="#6385FF"/>
</linearGradient>
<linearGradient id="paint80_linear" x1="24.6324" y1="131.309" x2="24.6324" y2="132.401" gradientUnits="userSpaceOnUse">
<stop stop-color="#95F9FF"/>
<stop offset="1" stop-color="#6385FF"/>
</linearGradient>
<linearGradient id="paint81_linear" x1="99.8452" y1="21.9062" x2="99.8452" y2="22.9062" gradientUnits="userSpaceOnUse">
<stop stop-color="#6304FD"/>
<stop offset="1" stop-color="#0052CC"/>
</linearGradient>
<linearGradient id="paint82_linear" x1="99.8452" y1="20.0078" x2="99.8452" y2="21.0078" gradientUnits="userSpaceOnUse">
<stop stop-color="#6304FD"/>
<stop offset="1" stop-color="#0052CC"/>
</linearGradient>
<linearGradient id="paint83_linear" x1="99.8452" y1="18.082" x2="99.8452" y2="19.082" gradientUnits="userSpaceOnUse">
<stop stop-color="#6304FD"/>
<stop offset="1" stop-color="#0052CC"/>
</linearGradient>
<linearGradient id="paint84_linear" x1="78.2307" y1="41.1484" x2="78.2307" y2="63.813" gradientUnits="userSpaceOnUse">
<stop stop-color="#8E48FF"/>
<stop offset="1" stop-color="#0052CC"/>
</linearGradient>
<linearGradient id="paint85_linear" x1="81.1909" y1="80.207" x2="81.1909" y2="81.2997" gradientUnits="userSpaceOnUse">
<stop stop-color="#95F9FF"/>
<stop offset="1" stop-color="#6385FF"/>
</linearGradient>
<linearGradient id="paint86_linear" x1="81.1909" y1="82.6055" x2="81.1909" y2="83.6984" gradientUnits="userSpaceOnUse">
<stop stop-color="#95F9FF"/>
<stop offset="1" stop-color="#6385FF"/>
</linearGradient>
<linearGradient id="paint87_linear" x1="108.192" y1="50.7266" x2="108.192" y2="51.7266" gradientUnits="userSpaceOnUse">
<stop stop-color="#8E48FF"/>
<stop offset="1" stop-color="#0052CC"/>
</linearGradient>
<linearGradient id="paint88_linear" x1="102.64" y1="55.9531" x2="102.64" y2="56.9531" gradientUnits="userSpaceOnUse">
<stop stop-color="#8E48FF"/>
<stop offset="1" stop-color="#0052CC"/>
</linearGradient>
<linearGradient id="paint89_linear" x1="102.64" y1="54.8359" x2="102.64" y2="55.8359" gradientUnits="userSpaceOnUse">
<stop stop-color="#8E48FF"/>
<stop offset="1" stop-color="#0052CC"/>
</linearGradient>
<linearGradient id="paint90_linear" x1="106.563" y1="49.2734" x2="106.563" y2="50.2734" gradientUnits="userSpaceOnUse">
<stop stop-color="#8E48FF"/>
<stop offset="1" stop-color="#0052CC"/>
</linearGradient>
<linearGradient id="paint91_linear" x1="173.643" y1="46.5625" x2="173.643" y2="80.1604" gradientUnits="userSpaceOnUse">
<stop stop-color="#95F9FF"/>
<stop offset="1" stop-color="#6385FF"/>
</linearGradient>
<linearGradient id="paint92_linear" x1="176.116" y1="53.5703" x2="176.116" y2="87.192" gradientUnits="userSpaceOnUse">
<stop stop-color="#95F9FF"/>
<stop offset="1" stop-color="#6385FF"/>
</linearGradient>
<linearGradient id="paint93_linear" x1="186.25" y1="130.5" x2="186.25" y2="128.125" gradientUnits="userSpaceOnUse">
<stop stop-color="#7761FF"/>
<stop offset="1" stop-color="#AC4BF9"/>
</linearGradient>
<linearGradient id="paint94_linear" x1="143" y1="87.249" x2="154.875" y2="77.499" gradientUnits="userSpaceOnUse">
<stop stop-color="#75E0E6"/>
<stop offset="1" stop-color="#75E0E6" stop-opacity="0"/>
</linearGradient>
<linearGradient id="paint95_linear" x1="141.185" y1="40.5312" x2="141.185" y2="127.53" gradientUnits="userSpaceOnUse">
<stop stop-color="#75E0E6"/>
<stop offset="1" stop-color="#FC22CC"/>
</linearGradient>
<linearGradient id="paint96_linear" x1="129.796" y1="115.75" x2="129.796" y2="118.681" gradientUnits="userSpaceOnUse">
<stop stop-color="#95F9FF"/>
<stop offset="1" stop-color="#6385FF"/>
</linearGradient>
</defs>
</svg>
